	<svg
		xmlns="http://www.w3.org/2000/svg" y="135" width="135" height="135" style="width:100%;height:100%">
		<defs>
			<clipPath id="c">
				<path d="M0 0h135v135H0z"/>
			</clipPath>
			<clipPath id="d">
				<path d="M0 0h540v540H0z"/>
			</clipPath>
			<clipPath id="e">
				<path d="M0 0h540v540H0z"/>
			</clipPath>
			<clipPath id="f">
				<path d="M0 0h540v540H0z"/>
			</clipPath>
			<clipPath id="g">
				<path fill="#fff" d="M150.895-235s-316 9-323 7-12 448-12 448 363 6 363 4 9.5-126.5 9.5-126.5l29-37 36.5-10-32-41-48.5-11.5-22.5-233"/>
			</clipPath>
		</defs>
		<g clip-path="url(#c)">
			<g clip-path="url(#d)" transform="scale(.25)" display="block">
				<g clip-path="url(#e)" transform="rotate(.249 269.9 399.294)" display="block">
					<path fill="#FFF" d="M156.583 289.938l58.44-25.92c2.36-1.04 5.08-.96 7.32.28l117.4 63.4a8.33 8.33 0 007.16.4l54.4-22.64c.12 2.68.2 5.28.2 7.84 0 74.28-58.8 134.52-131.32 134.52s-131.32-60.24-131.32-134.52c0-1.2 0-2.4.04-3.6l-.08.08c.2-11.84.44-20.76.68-26.76.16-4.52.44-9.32.8-14.4.8-72.12 39.84-164.76 102.68-174.72 71.64-11.36 147.08 89.04 158.72 162.44.04.32.08.68.12 1l-58.16 21.4c-2.88 1.04-6.08 1-8.92-.12l-115.16-45.68c-4.24-1.64-9-.92-12.52 1.96l-4.44 3.6-46.04 51.44z" display="block"/>
					<path fill="#B8E675" d="M377.683 390.618c-20.2 29.4-51.56 50.12-87.8 55.72a55.111 55.111 0 01-3.36-18.96c0-29.8 23.56-53.92 52.64-53.92 15.2 0 28.92 6.6 38.52 17.16zm-156.515 1.431c25.4 0 46-21.08 46-47.12 0-26-20.6-47.08-46-47.08s-46 21.08-46 47.08c0 26.04 20.6 47.12 46 47.12zM143.893 230.97c5.96-34.12 19.08-68.84 38.08-94.92 9.48 8.08 16.28 19.6 18.4 33 4.64 29.4-14.88 56.92-43.6 61.48-4.36.68-8.68.8-12.88.44zm157.646-123.967c34.76 20.08 65.68 59 84.08 98.76-9.68 12.36-23.72 21.16-40.28 23.76-35.32 5.6-68.6-19.2-74.32-55.36-4.36-27.56 8.52-53.76 30.52-67.16z" display="block"/>
				</g>
				<g clip-path="url(#f)" transform="rotate(-6 25.001 5122.628)" display="block">
					<g clip-path="url(#g)" transform="translate(271.105 278)" display="block">
						<path fill="#FFF" d="M.016 170c76.8 0 139.08-64.04 139.08-143.04C139.096-52 76.816-170 .016-170c-76.84 0-139.12 118-139.12 196.96 0 79 62.28 143.04 139.12 143.04z"/>
					</g>
					<path fill="#B8E675" d="M384.975 387.171c-21.4 31.24-54.64 53.32-93 59.24-2.32-6.28-3.56-13.08-3.56-20.16 0-31.64 24.96-57.32 55.76-57.32 16.12 0 30.6 7 40.8 18.24zM144.718 235.435c11.88-34.8 31.36-69.08 55.56-93.32 8.6 10.08 13.76 23.28 13.76 37.72 0 31.64-24.96 57.32-55.76 57.32-4.68 0-9.2-.6-13.56-1.72zm185.451-103.938c33.04 26.84 58.96 72.88 71.6 117.72-12.16 11.32-28.32 18.24-46.04 18.24-37.88 0-68.6-31.56-68.6-70.52 0-29.64 17.8-55.04 43.04-65.44z" display="block"/>
					<path fill="#B8E674" d="M219.181 388.704c26.92 0 48.72-22.44 48.72-50.08 0-27.64-21.8-50.08-48.72-50.08-26.92 0-48.72 22.44-48.72 50.08 0 27.64 21.8 50.08 48.72 50.08z" display="block"/>
				</g>
			</g>
		</g>
	</svg>  