	<svg
		xmlns="http://www.w3.org/2000/svg" width="135" height="135" style="width:100%;height:100%">
		<defs>
			<clipPath id="a">
				<path d="M0 0h135v135H0z"/>
			</clipPath>
			<clipPath id="b">
				<path d="M0 0h540v540H0z"/>
			</clipPath>
		</defs>
		<g clip-path="url(#a)">
			<g clip-path="url(#b)" transform="scale(.25)" display="block">
				<path fill="#FFF" d="M267.121 436c76.8 0 139.08-64.04 139.08-143.04C406.201 214 343.921 96 267.121 96c-76.84 0-139.12 118-139.12 196.96 0 79 62.28 143.04 139.12 143.04z" display="block"/>
				<path fill="#B8E675" d="M380.975 375.171c-21.4 31.24-54.64 53.32-93 59.24-2.32-6.28-3.56-13.08-3.56-20.16 0-31.64 24.96-57.32 55.76-57.32 16.12 0 30.6 7 40.8 18.24zM140.718 223.435c11.88-34.8 31.36-69.08 55.56-93.32 8.6 10.08 13.76 23.28 13.76 37.72 0 31.64-24.96 57.32-55.76 57.32-4.68 0-9.2-.6-13.56-1.72zm185.451-103.938c33.04 26.84 58.96 72.88 71.6 117.72-12.16 11.32-28.32 18.24-46.04 18.24-37.88 0-68.6-31.56-68.6-70.52 0-29.64 17.8-55.04 43.04-65.44z" display="block"/>
				<path fill="#B8E674" d="M215.181 376.704c26.92 0 48.72-22.44 48.72-50.08 0-27.64-21.8-50.08-48.72-50.08-26.92 0-48.72 22.44-48.72 50.08 0 27.64 21.8 50.08 48.72 50.08z" display="block"/>
			</g>
		</g>
	</svg>