	<svg
		xmlns="http://www.w3.org/2000/svg" y="270" width="135" height="135" style="width:100%;height:100%">
		<defs>
			<clipPath id="h">
				<path d="M0 0h135v135H0z"/>
			</clipPath>
			<clipPath id="i">
				<path d="M0 0h540v540H0z"/>
			</clipPath>
			<clipPath id="j">
				<path d="M0 0h540v540H0z"/>
			</clipPath>
			<clipPath id="k">
				<path d="M0 0h540v540H0z"/>
			</clipPath>
		</defs>
		<g clip-path="url(#h)">
			<g clip-path="url(#i)" transform="scale(.25)" display="block">
				<path fill="#F2B86B" d="M166.68 388h214.64c10.32 0 18.68 8.36 18.68 18.68v2.64c0 10.32-8.36 18.68-18.68 18.68H166.68c-10.32 0-18.68-8.36-18.68-18.68v-2.64c0-10.32 8.36-18.68 18.68-18.68z" display="block"/>
				<g clip-path="url(#j)" display="block">
					<path fill="#823F1A" d="M150.68 320h246.64c10.32 0 18.68 8.36 18.68 18.68v30.64c0 10.32-8.36 18.68-18.68 18.68H150.68c-10.32 0-18.68-8.36-18.68-18.68v-30.64c0-10.32 8.36-18.68 18.68-18.68z" display="block"/>
					<path fill="#FFBC00" d="M290.36 358.8a40.92 40.92 0 01-36.72 0L176 320h192l-77.64 38.8z" display="block"/>
				</g>
				<path fill="#90FF00" d="M149.42 266.168l17.8 2.96a30.715 30.715 0 0027.28-9.08c18.36-19.2 47.48-23.28 70.4-9.88a13.352 13.352 0 0016.4-2.32c18.36-19.2 47.48-23.28 70.4-9.88 8.8 5.12 19.56 5.56 28.76 1.2l16.28-7.76c10.96-5.24 24.12-.6 29.32 10.36 5.24 11 .6 24.12-10.36 29.36l-16.32 7.76c-22.32 10.64-48.48 9.56-69.84-2.92-5.36-3.12-12.16-2.2-16.44 2.28-18.32 19.2-47.44 23.28-70.4 9.92-5.32-3.12-12.12-2.2-16.4 2.28-17.08 17.88-41.96 26.16-66.36 22.08l-17.8-2.96c-11.96-2-20.04-13.36-18.04-25.36 2-11.96 13.32-20.04 25.32-18.04z" display="block"/>
				<g clip-path="url(#k)" transform="rotate(-8 129.993 186.098)" display="block">
					<path fill="#F2B86B" d="M187.411 128.19l158.664.001c30.983-.008 56.094 25.091 56.097 56.114l-.006 37.403c.001 10.34-8.363 18.698-18.659 18.665l-233.555.015c-10.301.007-18.658-8.358-18.665-18.66l.011-37.442c-.008-30.983 25.091-56.094 56.113-56.096z" display="block"/>
					<path fill="#FFCF8E" d="M201.854 146.874l25.851-.002c4.164-.02 7.486 3.355 7.473 7.473a7.427 7.427 0 01-7.473 7.473l-25.851.002c-4.119-.013-7.486-3.355-7.473-7.473-.026-4.124 3.354-7.486 7.473-7.473zm103.904 0l25.852-.002c4.163-.02 7.486 3.354 7.472 7.473a7.427 7.427 0 01-7.472 7.472l-25.852.003c-4.118-.014-7.486-3.355-7.473-7.473-.026-4.124 3.355-7.486 7.473-7.473zm-51.952 26.159l25.851-.002c4.164-.02 7.486 3.355 7.473 7.473a7.427 7.427 0 01-7.473 7.473l-25.851.002c-4.119-.014-7.486-3.355-7.473-7.473-.026-4.124 3.354-7.486 7.473-7.473z" display="block"/>
				</g>
			</g>
		</g>
	</svg>