<svg
	xmlns="http://www.w3.org/2000/svg" width="46" height="46" viewBox="0 0 46 46" version="1.1">
	<title>tab_profile_inactive</title>
	<g stroke="none" stroke-width="1" fill="none" fill-rule="evenodd">
		<g>
			<path d="M39.5 28.698l-.8-.333V21.5c0-8.395-6.805-15.2-15.2-15.2S8.3 13.105 8.3 21.5v6.865l-.8.333a5.201 5.201 0 0 0 2 10.002h28a5.2 5.2 0 0 0 2-10.002z" stroke="#AFAFAF" stroke-width="2.6"/>
			<g>
				<g>
					<g>
						<path d="M27.347 13.15C25.569 16.839 21.537 19.3 17 19.3c-1.031 0-2.045-.126-3.02-.372a10.174 10.174 0 0 0-.68 3.672v6c0 5.634 4.567 10.2 10.2 10.2 5.633 0 10.2-4.566 10.2-10.2v-6c0-4.21-2.573-7.913-6.353-9.45z" stroke="#AFAFAF" stroke-width="2.6"/>
						<g transform="translate(18.987 18.9)" fill="#AFAFAF">
							<path d="M1.513.1a1.5 1.5 0 0 1 1.5 1.5v4a1.5 1.5 0 0 1-3 0v-4a1.5 1.5 0 0 1 1.5-1.5z"/>
							<rect x="6.013" y=".1" width="3" height="7" rx="1.5"/>
						</g>
					</g>
				</g>
			</g>
		</g>
	</g>
</svg>