<?xml version="1.0" encoding="UTF-8"?><svg width="212px" height="212px" viewBox="0 0 212 212" version="1.1" xmlns="http://www.w3.org/2000/svg" xmlns:xlink="http://www.w3.org/1999/xlink"><title>cake</title><desc>Created with Sketch.</desc><defs><path d="M8.81231629,0 L165.647184,0 C169.85725,1.00298014e-15 173.270184,3.41293335 173.270184,7.623 C173.270184,7.64845667 173.270056,7.67391318 173.269801,7.69936857 L172.15724,118.748056 C172.115361,122.92812 168.714896,126.294688 164.534622,126.294688 L7.69975497,126.294688 C3.48968832,126.294688 0.0767549671,122.881754 0.0767549671,118.671688 C0.0767549671,118.646231 0.0768824842,118.620774 0.0771375137,118.595319 L1.18969883,7.54663143 C1.23157755,3.366568 4.63204307,-1.89663153e-15 8.81231629,0 Z" id="path-1"/><path d="M134.158806,53.7053124 L177.1065,53.7053124 C182.018244,53.7053124 186,57.687068 186,62.5988124 L186,171.1065 C186,176.018244 182.018244,180 177.1065,180 L134.158806,180 C129.247062,180 125.265306,176.018244 125.265306,171.1065 L125.265306,62.5988124 C125.265306,57.687068 129.247062,53.7053124 134.158806,53.7053124 Z" id="path-3"/></defs><g id="cake" stroke="none" stroke-width="1" fill="none" fill-rule="evenodd"><g id="Group-2" transform="translate(13.000000, 5.000000)"><g id="Group" transform="translate(74.876796, 33.145968) rotate(-17.000000) translate(-74.876796, -33.145968) translate(49.563187, 6.255724)"><path d="M28.3928116,18.2380774 C32.6258471,15.9543913 37.9094866,15.8536359 42.3806011,18.4350351 C49.2374419,22.393834 51.5867691,31.1616424 47.6279702,38.0184833 L47.6279702,38.0184833 L43.0198461,45.9999883 C39.4149796,52.2438003 31.8225539,54.7500491 25.3165057,52.1591773 C18.8110412,54.7501381 11.2184099,52.2439111 7.61347938,45.9999883 L3.00535532,38.0184833 C-0.953443602,31.1616424 1.39588358,22.393834 8.25272446,18.4350351 C12.7254967,15.8526788 18.0113965,15.9544664 22.2452219,18.2406185 C24.2585792,19.0116696 26.2003273,19.0476805 28.1653066,18.3268727 Z" id="Combined-Shape" fill="#FC4848"/><path d="M24.9891781,22.4323421 C24.9891781,11.7884247 20.9763676,3.09016958 11.4592121,0" id="Path-29" stroke="#D92727" stroke-width="6.3525" stroke-linecap="round" stroke-linejoin="round"/><ellipse id="Oval-2" fill="#FF8686" cx="13.9183673" cy="29.3785499" rx="6.32653061" ry="6.31473438"/></g><rect id="Rectangle-129" fill="#FFC0C0" transform="translate(79.080530, 55.881140) rotate(-15.000000) translate(-79.080530, -55.881140)" x="46.7414916" y="47.0405115" width="64.6780777" height="17.6812563" rx="8.84062813"/><g id="Rectangle-118-+-Rectangle-118-Copy-+-Rectangle-118-Copy-2-Mask" transform="translate(0.000000, 53.705312)"><mask id="mask-2" fill="white"><use xlink:href="#path-1"/></mask><use id="Mask" fill="#FFC0C0" xlink:href="#path-1"/><rect id="Rectangle-118" fill="#A56644" mask="url(#mask-2)" x="-7.59183673" y="8.84062813" width="124" height="30.310725" rx="5.71725"/><rect id="Rectangle-118-Copy" fill="#A56644" mask="url(#mask-2)" x="-7.59183673" y="47.9919813" width="124" height="30.310725" rx="5.71725"/><rect id="Rectangle-118-Copy-2" fill="#A56644" mask="url(#mask-2)" x="-7.59183673" y="87.1433344" width="124" height="30.310725" rx="5.71725"/></g><rect id="Rectangle" fill="#FFC0C0" x="65.7959184" y="92.8566656" width="16.4489796" height="31.5736719" rx="8.2244898"/><rect id="Rectangle-Copy-2" fill="#FFC0C0" x="25.3061224" y="133.270966" width="15.1836735" height="26.5218844" rx="7.59183673"/><rect id="Rectangle-Copy" fill="#FFC0C0" x="79.7142857" y="95.3825593" width="16.4489796" height="18.9442031" rx="8.2244898"/><mask id="mask-4" fill="white"><use xlink:href="#path-3"/></mask><use id="Mask" fill="#FFA9A9" xlink:href="#path-3"/></g></g></svg>