<?xml version="1.0" encoding="UTF-8"?><svg width="212px" height="212px" viewBox="0 0 212 212" version="1.1" xmlns="http://www.w3.org/2000/svg" xmlns:xlink="http://www.w3.org/1999/xlink"><title>English</title><desc>Created with Sketch.</desc><g id="English" stroke="none" stroke-width="1" fill="none" fill-rule="evenodd"><g id="Group-Copy" transform="translate(40.000000, 47.000000)"><path d="M85.8470202,122.251458 L85.4842726,154.946444 C85.4040277,162.179032 79.5181182,168 72.285085,168 L39.7248623,168 C32.4347036,168 26.5248623,162.090159 26.5248623,154.8 C26.5248623,151.283247 27.9281941,147.911882 30.4235386,145.433817 L63.3465088,112.738832 C68.5193087,107.601853 76.8770359,107.630891 82.0140152,112.803691 C84.5054492,115.312498 85.8862463,118.71595 85.8470202,122.251458 Z" id="Triangle" fill="#D8D8D8" transform="translate(46.952206, 129.019608) scale(-1, -1) translate(-46.952206, -129.019608)"/><g id="Rectangle-+-Rectangle-Copy-2-Mask"><path d="M127.70655,-7.19619088 C123.598333,-9.39328953 119.636459,-10.9626 108.286011,-10.9626 L23.2119031,-10.9626 C12.8072379,-10.9198808 8.79882535,-9.5190859 4.29344997,-7.19619088 C-0.65981045,-4.54715822 -4.54715822,-0.65981045 -7.19619088,4.29344997 C-9.39328953,8.40166726 -10.9626,12.3635408 -10.9626,23.7139895 L-10.9626,77.8077047 C-10.9198808,88.2123699 -9.5190859,92.2207825 -7.19619088,96.7261579 C-4.54715822,101.679418 -0.65981045,105.566766 4.29344997,108.215799 C8.40166726,110.412897 12.3635408,111.982208 23.7139895,111.982208 L108.286011,111.982208 C119.091168,111.982208 123.15287,110.563489 127.70655,108.215799 C132.65981,105.566766 136.547158,101.679418 139.196191,96.7261579 C141.39329,92.6179406 142.9626,88.656067 142.9626,77.3056183 L142.9626,23.7139895 C142.9626,12.908832 141.543881,8.84712953 139.196191,4.29344997 C136.547158,-0.65981045 132.65981,-4.54715822 127.70655,-7.19619088 Z" id="Mask" stroke="#D8D8D8" stroke-width="21.9252" fill="#FF4B4B"/><path d="M132,23.7139895 L132,28.8618894 L60,28.8627451 L60,14.4313725 L131.330265,14.4301644 C131.771968,16.6106942 132,19.4643909 132,23.7139895 Z" id="Path" fill="#FFFFFF"/><polygon id="Path" fill="#FFFFFF" points="132 43 132 57 60 57 60 43"/><path d="M132,72.156 L132,77.3056183 L131.99563,78.2990487 C131.962151,82.0073054 131.736654,84.583105 131.330322,86.589159 L0.669488554,86.5887427 C0.244565561,84.4912699 0.0171909232,81.7709467 0,77.7846474 L0,72.156 L132,72.156 Z" id="Path" fill="#FFFFFF"/><path d="M68,-2.0250468e-13 L68,54 C68,55.6568542 66.6568542,57 65,57 L0,57 L0.000989481629,23.2349604 L0.00913437888,22.2939709 C0.105061261,15.1114632 0.954692409,12.2982266 2.47077448,9.46339962 C4.08298261,6.44883252 6.44883252,4.08298261 9.46339962,2.47077448 L9.81826037,2.28458628 L10.1824248,2.10165354 C12.9253382,0.757105507 15.9882873,0.0312512917 23.2349604,-2.0250468e-13 L68,-2.0250468e-13 Z" id="Path" fill="#1CB0F6"/></g></g><path d="M58.5,69.28125 L55.4655312,70.6153644 C54.4543729,71.0599235 53.2742808,70.6006042 52.8297217,69.5894459 C52.690969,69.2738501 52.6361515,68.9277463 52.6705888,68.5847199 L53.0017045,65.2865045 L53.0017045,65.2865045 L50.7951839,62.8128171 C50.059918,61.9885248 50.1320881,60.7242531 50.9563804,59.9889872 C51.2136529,59.759501 51.5258777,59.6004145 51.8627569,59.5271653 L55.1018665,58.8228705 L55.1018665,58.8228705 L56.7726306,55.9599332 C57.3293695,55.0059335 58.5540652,54.6838899 59.508065,55.2406288 C59.8058209,55.4143944 60.0536038,55.6621773 60.2273694,55.9599332 L61.8981335,58.8228705 L61.8981335,58.8228705 L65.1372431,59.5271653 C66.2165926,59.7618533 66.901326,60.8270912 66.666638,61.9064407 C66.5933888,62.2433199 66.4343023,62.5555447 66.2048161,62.8128171 L63.9982955,65.2865045 L63.9982955,65.2865045 L64.3294112,68.5847199 C64.439747,69.6837648 63.6382398,70.6641616 62.5391949,70.7744974 C62.1961685,70.8089346 61.8500647,70.7541172 61.5344688,70.6153644 L58.5,69.28125 L58.5,69.28125 Z" id="Star" fill="#FFFFFF"/><path d="M92.5,69.28125 L89.4655312,70.6153644 C88.4543729,71.0599235 87.2742808,70.6006042 86.8297217,69.5894459 C86.690969,69.2738501 86.6361515,68.9277463 86.6705888,68.5847199 L87.0017045,65.2865045 L87.0017045,65.2865045 L84.7951839,62.8128171 C84.059918,61.9885248 84.1320881,60.7242531 84.9563804,59.9889872 C85.2136529,59.759501 85.5258777,59.6004145 85.8627569,59.5271653 L89.1018665,58.8228705 L89.1018665,58.8228705 L90.7726306,55.9599332 C91.3293695,55.0059335 92.5540652,54.6838899 93.508065,55.2406288 C93.8058209,55.4143944 94.0536038,55.6621773 94.2273694,55.9599332 L95.8981335,58.8228705 L95.8981335,58.8228705 L99.1372431,59.5271653 C100.216593,59.7618533 100.901326,60.8270912 100.666638,61.9064407 C100.593389,62.2433199 100.434302,62.5555447 100.204816,62.8128171 L97.9982955,65.2865045 L97.9982955,65.2865045 L98.3294112,68.5847199 C98.439747,69.6837648 97.6382398,70.6641616 96.5391949,70.7744974 C96.1961685,70.8089346 95.8500647,70.7541172 95.5344688,70.6153644 L92.5,69.28125 L92.5,69.28125 Z" id="Star" fill="#FFFFFF"/><path d="M58.5,96.28125 L55.4655312,97.6153644 C54.4543729,98.0599235 53.2742808,97.6006042 52.8297217,96.5894459 C52.690969,96.2738501 52.6361515,95.9277463 52.6705888,95.5847199 L53.0017045,92.2865045 L53.0017045,92.2865045 L50.7951839,89.8128171 C50.059918,88.9885248 50.1320881,87.7242531 50.9563804,86.9889872 C51.2136529,86.759501 51.5258777,86.6004145 51.8627569,86.5271653 L55.1018665,85.8228705 L55.1018665,85.8228705 L56.7726306,82.9599332 C57.3293695,82.0059335 58.5540652,81.6838899 59.508065,82.2406288 C59.8058209,82.4143944 60.0536038,82.6621773 60.2273694,82.9599332 L61.8981335,85.8228705 L61.8981335,85.8228705 L65.1372431,86.5271653 C66.2165926,86.7618533 66.901326,87.8270912 66.666638,88.9064407 C66.5933888,89.2433199 66.4343023,89.5555447 66.2048161,89.8128171 L63.9982955,92.2865045 L63.9982955,92.2865045 L64.3294112,95.5847199 C64.439747,96.6837648 63.6382398,97.6641616 62.5391949,97.7744974 C62.1961685,97.8089346 61.8500647,97.7541172 61.5344688,97.6153644 L58.5,96.28125 L58.5,96.28125 Z" id="Star" fill="#FFFFFF"/><path d="M92.5,96.28125 L89.4655312,97.6153644 C88.4543729,98.0599235 87.2742808,97.6006042 86.8297217,96.5894459 C86.690969,96.2738501 86.6361515,95.9277463 86.6705888,95.5847199 L87.0017045,92.2865045 L87.0017045,92.2865045 L84.7951839,89.8128171 C84.059918,88.9885248 84.1320881,87.7242531 84.9563804,86.9889872 C85.2136529,86.759501 85.5258777,86.6004145 85.8627569,86.5271653 L89.1018665,85.8228705 L89.1018665,85.8228705 L90.7726306,82.9599332 C91.3293695,82.0059335 92.5540652,81.6838899 93.508065,82.2406288 C93.8058209,82.4143944 94.0536038,82.6621773 94.2273694,82.9599332 L95.8981335,85.8228705 L95.8981335,85.8228705 L99.1372431,86.5271653 C100.216593,86.7618533 100.901326,87.8270912 100.666638,88.9064407 C100.593389,89.2433199 100.434302,89.5555447 100.204816,89.8128171 L97.9982955,92.2865045 L97.9982955,92.2865045 L98.3294112,95.5847199 C98.439747,96.6837648 97.6382398,97.6641616 96.5391949,97.7744974 C96.1961685,97.8089346 95.8500647,97.7541172 95.5344688,97.6153644 L92.5,96.28125 L92.5,96.28125 Z" id="Star" fill="#FFFFFF"/><path d="M75.5,82.28125 L72.4655312,83.6153644 C71.4543729,84.0599235 70.2742808,83.6006042 69.8297217,82.5894459 C69.690969,82.2738501 69.6361515,81.9277463 69.6705888,81.5847199 L70.0017045,78.2865045 L70.0017045,78.2865045 L67.7951839,75.8128171 C67.059918,74.9885248 67.1320881,73.7242531 67.9563804,72.9889872 C68.2136529,72.759501 68.5258777,72.6004145 68.8627569,72.5271653 L72.1018665,71.8228705 L72.1018665,71.8228705 L73.7726306,68.9599332 C74.3293695,68.0059335 75.5540652,67.6838899 76.508065,68.2406288 C76.8058209,68.4143944 77.0536038,68.6621773 77.2273694,68.9599332 L78.8981335,71.8228705 L78.8981335,71.8228705 L82.1372431,72.5271653 C83.2165926,72.7618533 83.901326,73.8270912 83.666638,74.9064407 C83.5933888,75.2433199 83.4343023,75.5555447 83.2048161,75.8128171 L80.9982955,78.2865045 L80.9982955,78.2865045 L81.3294112,81.5847199 C81.439747,82.6837648 80.6382398,83.6641616 79.5391949,83.7744974 C79.1961685,83.8089346 78.8500647,83.7541172 78.5344688,83.6153644 L75.5,82.28125 L75.5,82.28125 Z" id="Star" fill="#FFFFFF"/></g></svg>